<svg width="36" height="36" viewBox="0 0 36 36" fill="none" xmlns="http://www.w3.org/2000/svg">
<path d="M22.61 3H13.4075C4.99849 3 3.00049 4.9995 3.00049 13.3905V22.5945C3.00049 31.0005 4.98499 33 13.391 33H22.595C31.001 33 33.0005 31.0155 33.0005 22.6095V13.407C33.0005 4.998 31.016 3 22.61 3ZM27.2195 24.405H25.031C24.203 24.405 23.954 23.7345 22.469 22.2495C21.173 21 20.6255 20.844 20.297 20.844C19.844 20.844 19.7195 20.9685 19.7195 21.594V23.562C19.7195 24.0945 19.547 24.4065 18.1565 24.4065C16.8072 24.3149 15.499 23.9045 14.3391 23.209C13.1793 22.5136 12.201 21.553 11.4845 20.406C9.78401 18.2918 8.60153 15.8092 8.03149 13.1565C8.03149 12.828 8.15599 12.531 8.78149 12.531H10.97C11.5325 12.531 11.735 12.7815 11.954 13.359C13.016 16.485 14.828 19.203 15.563 19.203C15.845 19.203 15.968 19.0785 15.968 18.375V15.156C15.875 13.6875 15.095 13.563 15.095 13.032C15.105 12.8919 15.1692 12.7613 15.2739 12.6678C15.3787 12.5742 15.5157 12.5252 15.656 12.531H19.094C19.5635 12.531 19.7195 12.765 19.7195 13.3275V17.6715C19.7195 18.141 19.922 18.297 20.063 18.297C20.345 18.297 20.5625 18.141 21.0785 17.625C22.1868 16.2734 23.0923 14.7676 23.7665 13.155C23.8358 12.9616 23.9663 12.796 24.1382 12.6834C24.3101 12.5708 24.514 12.5173 24.719 12.531H26.9075C27.563 12.531 27.7025 12.8595 27.563 13.3275C26.7673 15.1102 25.7826 16.8023 24.626 18.375C24.3905 18.735 24.296 18.9225 24.626 19.344C24.8435 19.6725 25.61 20.313 26.126 20.922C26.8756 21.6702 27.4982 22.5355 27.9695 23.484C28.157 24.093 27.8435 24.405 27.2195 24.405Z" fill="#878787"/>
</svg>
